<?xml version="1.0" encoding="UTF-8"?>
<svg width="1024" height="1024" viewBox="0 0 1024 1024" fill="none" xmlns="http://www.w3.org/2000/svg">
    <!-- Background -->
    <rect width="1024" height="1024" rx="230" fill="#1A1A2E"/>
    
    <!-- Scissors Icon -->
    <g transform="translate(262, 262) scale(2)">
        <path d="M225 125C187.5 125 156.25 156.25 156.25 193.75C156.25 231.25 187.5 262.5 225 262.5C262.5 262.5 293.75 231.25 293.75 193.75C293.75 156.25 262.5 125 225 125ZM225 237.5C201.25 237.5 181.25 217.5 181.25 193.75C181.25 170 201.25 150 225 150C248.75 150 268.75 170 268.75 193.75C268.75 217.5 248.75 237.5 225 237.5Z" fill="white"/>
        <path d="M225 12.5C187.5 12.5 156.25 43.75 156.25 81.25C156.25 118.75 187.5 150 225 150C262.5 150 293.75 118.75 293.75 81.25C293.75 43.75 262.5 12.5 225 12.5ZM225 125C201.25 125 181.25 105 181.25 81.25C181.25 57.5 201.25 37.5 225 37.5C248.75 37.5 268.75 57.5 268.75 81.25C268.75 105 248.75 125 225 125Z" fill="white"/>
        <path d="M156.25 81.25L50 187.5" stroke="white" stroke-width="20" stroke-linecap="round"/>
        <path d="M156.25 193.75L50 87.5" stroke="white" stroke-width="20" stroke-linecap="round"/>
    </g>
</svg>
